<mxfile host="app.diagrams.net" modified="2022-04-08T09:58:32.225Z" agent="5.0 (Windows NT 10.0; Win64; x64) AppleWebKit/537.36 (KHTML, like Gecko) Chrome/100.0.4896.60 Safari/537.36" etag="BTWQdfB7s6m7uOVg9WBa" version="16.5.6" type="github" pages="2">
  <diagram id="C5RBs43oDa-KdzZeNtuy" name="Page-1">
    <mxGraphModel dx="782" dy="513" grid="1" gridSize="10" guides="1" tooltips="1" connect="1" arrows="1" fold="1" page="1" pageScale="1" pageWidth="827" pageHeight="1169" math="0" shadow="0">
      <root>
        <mxCell id="WIyWlLk6GJQsqaUBKTNV-0" />
        <mxCell id="WIyWlLk6GJQsqaUBKTNV-1" parent="WIyWlLk6GJQsqaUBKTNV-0" />
        <mxCell id="WIyWlLk6GJQsqaUBKTNV-2" value="" style="rounded=0;html=1;jettySize=auto;orthogonalLoop=1;fontSize=11;endArrow=block;endFill=0;endSize=8;strokeWidth=1;shadow=0;labelBackgroundColor=none;edgeStyle=orthogonalEdgeStyle;" parent="WIyWlLk6GJQsqaUBKTNV-1" target="WIyWlLk6GJQsqaUBKTNV-6" edge="1">
          <mxGeometry relative="1" as="geometry">
            <mxPoint x="390" y="240" as="sourcePoint" />
          </mxGeometry>
        </mxCell>
        <mxCell id="WIyWlLk6GJQsqaUBKTNV-4" value="Yes" style="rounded=0;html=1;jettySize=auto;orthogonalLoop=1;fontSize=11;endArrow=block;endFill=0;endSize=8;strokeWidth=1;shadow=0;labelBackgroundColor=none;edgeStyle=orthogonalEdgeStyle;entryX=0.5;entryY=0;entryDx=0;entryDy=0;" parent="WIyWlLk6GJQsqaUBKTNV-1" source="WIyWlLk6GJQsqaUBKTNV-6" edge="1" target="mwSsWJYTHsI-j-IHyEZh-3">
          <mxGeometry y="20" relative="1" as="geometry">
            <mxPoint as="offset" />
            <mxPoint x="390" y="460" as="targetPoint" />
            <Array as="points" />
          </mxGeometry>
        </mxCell>
        <mxCell id="WIyWlLk6GJQsqaUBKTNV-6" value="用户把该设备添加到了微信？" style="rhombus;whiteSpace=wrap;html=1;shadow=0;fontFamily=Helvetica;fontSize=12;align=center;strokeWidth=1;spacing=6;spacingTop=-4;" parent="WIyWlLk6GJQsqaUBKTNV-1" vertex="1">
          <mxGeometry x="320" y="340" width="140" height="80" as="geometry" />
        </mxCell>
        <mxCell id="_pQ_e1QaEOG_pFHMruiR-2" value="" style="edgeStyle=orthogonalEdgeStyle;rounded=0;orthogonalLoop=1;jettySize=auto;html=1;" parent="WIyWlLk6GJQsqaUBKTNV-1" source="_pQ_e1QaEOG_pFHMruiR-0" edge="1">
          <mxGeometry relative="1" as="geometry">
            <mxPoint x="390" y="170" as="targetPoint" />
          </mxGeometry>
        </mxCell>
        <mxCell id="_pQ_e1QaEOG_pFHMruiR-0" value="用户退出家庭" style="rounded=1;whiteSpace=wrap;html=1;fontSize=12;glass=0;strokeWidth=1;shadow=0;" parent="WIyWlLk6GJQsqaUBKTNV-1" vertex="1">
          <mxGeometry x="330" y="60" width="120" height="50" as="geometry" />
        </mxCell>
        <mxCell id="_pQ_e1QaEOG_pFHMruiR-13" value="家庭下是否有设备？" style="rhombus;whiteSpace=wrap;html=1;" parent="WIyWlLk6GJQsqaUBKTNV-1" vertex="1">
          <mxGeometry x="330" y="170" width="120" height="80" as="geometry" />
        </mxCell>
        <mxCell id="_pQ_e1QaEOG_pFHMruiR-19" value="删除家庭" style="rounded=1;whiteSpace=wrap;html=1;fontSize=12;glass=0;strokeWidth=1;shadow=0;" parent="WIyWlLk6GJQsqaUBKTNV-1" vertex="1">
          <mxGeometry x="560" y="60" width="120" height="50" as="geometry" />
        </mxCell>
        <mxCell id="_pQ_e1QaEOG_pFHMruiR-27" value="" style="edgeStyle=orthogonalEdgeStyle;rounded=0;orthogonalLoop=1;jettySize=auto;html=1;exitX=0.5;exitY=1;exitDx=0;exitDy=0;entryX=0.5;entryY=0;entryDx=0;entryDy=0;" parent="WIyWlLk6GJQsqaUBKTNV-1" edge="1" target="_pQ_e1QaEOG_pFHMruiR-42" source="_pQ_e1QaEOG_pFHMruiR-41">
          <mxGeometry relative="1" as="geometry">
            <mxPoint x="395.0000000000002" y="770" as="sourcePoint" />
            <mxPoint x="390" y="848" as="targetPoint" />
            <Array as="points" />
          </mxGeometry>
        </mxCell>
        <mxCell id="_pQ_e1QaEOG_pFHMruiR-30" value="" style="edgeStyle=orthogonalEdgeStyle;rounded=0;orthogonalLoop=1;jettySize=auto;html=1;" parent="WIyWlLk6GJQsqaUBKTNV-1" source="_pQ_e1QaEOG_pFHMruiR-31" edge="1">
          <mxGeometry relative="1" as="geometry">
            <mxPoint x="195" y="860" as="targetPoint" />
          </mxGeometry>
        </mxCell>
        <mxCell id="mwSsWJYTHsI-j-IHyEZh-21" value="No" style="edgeLabel;html=1;align=center;verticalAlign=middle;resizable=0;points=[];" vertex="1" connectable="0" parent="_pQ_e1QaEOG_pFHMruiR-30">
          <mxGeometry x="-0.0531" y="2" relative="1" as="geometry">
            <mxPoint as="offset" />
          </mxGeometry>
        </mxCell>
        <mxCell id="_pQ_e1QaEOG_pFHMruiR-31" value="注册到微信的设备是否&lt;span&gt;为可用状态？&lt;/span&gt;" style="rhombus;whiteSpace=wrap;html=1;" parent="WIyWlLk6GJQsqaUBKTNV-1" vertex="1">
          <mxGeometry x="270" y="610" width="240" height="60" as="geometry" />
        </mxCell>
        <mxCell id="_pQ_e1QaEOG_pFHMruiR-35" value="" style="endArrow=classic;html=1;rounded=0;entryX=1;entryY=0.5;entryDx=0;entryDy=0;exitX=0;exitY=0.5;exitDx=0;exitDy=0;" parent="WIyWlLk6GJQsqaUBKTNV-1" edge="1">
          <mxGeometry width="50" height="50" relative="1" as="geometry">
            <mxPoint x="315" y="890" as="sourcePoint" />
            <mxPoint x="250" y="890" as="targetPoint" />
          </mxGeometry>
        </mxCell>
        <mxCell id="_pQ_e1QaEOG_pFHMruiR-40" value="end" style="rounded=1;whiteSpace=wrap;html=1;" parent="WIyWlLk6GJQsqaUBKTNV-1" vertex="1">
          <mxGeometry x="90" y="860" width="160" height="60" as="geometry" />
        </mxCell>
        <mxCell id="_pQ_e1QaEOG_pFHMruiR-42" value="&lt;span&gt;用户设备关联关系设置为不可用状态&lt;/span&gt;" style="rounded=1;whiteSpace=wrap;html=1;" parent="WIyWlLk6GJQsqaUBKTNV-1" vertex="1">
          <mxGeometry x="305" y="860" width="170" height="60" as="geometry" />
        </mxCell>
        <mxCell id="mwSsWJYTHsI-j-IHyEZh-0" value="" style="rounded=0;html=1;jettySize=auto;orthogonalLoop=1;fontSize=11;endArrow=block;endFill=0;endSize=8;strokeWidth=1;shadow=0;labelBackgroundColor=none;edgeStyle=orthogonalEdgeStyle;entryX=0;entryY=0.5;entryDx=0;entryDy=0;exitX=0.5;exitY=1;exitDx=0;exitDy=0;" edge="1" parent="WIyWlLk6GJQsqaUBKTNV-1" source="mwSsWJYTHsI-j-IHyEZh-1" target="_pQ_e1QaEOG_pFHMruiR-13">
          <mxGeometry relative="1" as="geometry">
            <mxPoint x="265" y="270" as="targetPoint" />
          </mxGeometry>
        </mxCell>
        <mxCell id="mwSsWJYTHsI-j-IHyEZh-1" value="管理员删除家庭成员" style="rounded=1;whiteSpace=wrap;html=1;fontSize=12;glass=0;strokeWidth=1;shadow=0;" vertex="1" parent="WIyWlLk6GJQsqaUBKTNV-1">
          <mxGeometry x="110" y="60" width="120" height="50" as="geometry" />
        </mxCell>
        <mxCell id="_pQ_e1QaEOG_pFHMruiR-41" value="&lt;span&gt;把用户设备关联关系同步到微信侧&lt;/span&gt;" style="rounded=1;whiteSpace=wrap;html=1;" parent="WIyWlLk6GJQsqaUBKTNV-1" vertex="1">
          <mxGeometry x="290" y="730" width="200" height="60" as="geometry" />
        </mxCell>
        <mxCell id="mwSsWJYTHsI-j-IHyEZh-3" value="用户可以操作设备卡片？" style="rhombus;whiteSpace=wrap;html=1;" vertex="1" parent="WIyWlLk6GJQsqaUBKTNV-1">
          <mxGeometry x="270" y="480" width="240" height="60" as="geometry" />
        </mxCell>
        <mxCell id="mwSsWJYTHsI-j-IHyEZh-4" value="Yes" style="rounded=0;html=1;jettySize=auto;orthogonalLoop=1;fontSize=11;endArrow=block;endFill=0;endSize=8;strokeWidth=1;shadow=0;labelBackgroundColor=none;edgeStyle=orthogonalEdgeStyle;exitX=0.5;exitY=1;exitDx=0;exitDy=0;entryX=0.5;entryY=0;entryDx=0;entryDy=0;" edge="1" parent="WIyWlLk6GJQsqaUBKTNV-1" source="mwSsWJYTHsI-j-IHyEZh-3" target="_pQ_e1QaEOG_pFHMruiR-31">
          <mxGeometry y="20" relative="1" as="geometry">
            <mxPoint as="offset" />
            <mxPoint x="400" y="560" as="targetPoint" />
            <mxPoint x="400" y="430" as="sourcePoint" />
            <Array as="points">
              <mxPoint x="390" y="560" />
              <mxPoint x="390" y="560" />
            </Array>
          </mxGeometry>
        </mxCell>
        <mxCell id="mwSsWJYTHsI-j-IHyEZh-7" value="" style="endArrow=classic;html=1;rounded=0;exitX=0.5;exitY=1;exitDx=0;exitDy=0;entryX=0.5;entryY=0;entryDx=0;entryDy=0;" edge="1" parent="WIyWlLk6GJQsqaUBKTNV-1" source="_pQ_e1QaEOG_pFHMruiR-31" target="_pQ_e1QaEOG_pFHMruiR-41">
          <mxGeometry width="50" height="50" relative="1" as="geometry">
            <mxPoint x="420" y="690" as="sourcePoint" />
            <mxPoint x="470" y="640" as="targetPoint" />
          </mxGeometry>
        </mxCell>
        <mxCell id="mwSsWJYTHsI-j-IHyEZh-9" value="" style="endArrow=classic;html=1;rounded=0;exitX=0.5;exitY=1;exitDx=0;exitDy=0;entryX=1;entryY=0.5;entryDx=0;entryDy=0;" edge="1" parent="WIyWlLk6GJQsqaUBKTNV-1" source="_pQ_e1QaEOG_pFHMruiR-19" target="_pQ_e1QaEOG_pFHMruiR-13">
          <mxGeometry width="50" height="50" relative="1" as="geometry">
            <mxPoint x="420" y="290" as="sourcePoint" />
            <mxPoint x="470" y="240" as="targetPoint" />
            <Array as="points">
              <mxPoint x="620" y="210" />
            </Array>
          </mxGeometry>
        </mxCell>
        <mxCell id="mwSsWJYTHsI-j-IHyEZh-10" value="Yes" style="text;html=1;align=center;verticalAlign=middle;resizable=0;points=[];autosize=1;strokeColor=none;fillColor=none;" vertex="1" parent="WIyWlLk6GJQsqaUBKTNV-1">
          <mxGeometry x="385" y="280" width="30" height="20" as="geometry" />
        </mxCell>
        <mxCell id="mwSsWJYTHsI-j-IHyEZh-11" value="" style="endArrow=classic;html=1;rounded=0;entryX=0.5;entryY=0;entryDx=0;entryDy=0;exitX=0;exitY=1;exitDx=0;exitDy=0;" edge="1" parent="WIyWlLk6GJQsqaUBKTNV-1" source="_pQ_e1QaEOG_pFHMruiR-13" target="_pQ_e1QaEOG_pFHMruiR-40">
          <mxGeometry width="50" height="50" relative="1" as="geometry">
            <mxPoint x="420" y="390" as="sourcePoint" />
            <mxPoint x="470" y="340" as="targetPoint" />
            <Array as="points">
              <mxPoint x="320" y="230" />
              <mxPoint x="170" y="230" />
            </Array>
          </mxGeometry>
        </mxCell>
        <mxCell id="mwSsWJYTHsI-j-IHyEZh-17" value="No" style="edgeLabel;html=1;align=center;verticalAlign=middle;resizable=0;points=[];" vertex="1" connectable="0" parent="mwSsWJYTHsI-j-IHyEZh-11">
          <mxGeometry x="-0.7805" y="1" relative="1" as="geometry">
            <mxPoint as="offset" />
          </mxGeometry>
        </mxCell>
        <mxCell id="mwSsWJYTHsI-j-IHyEZh-13" value="" style="endArrow=classic;html=1;rounded=0;exitX=0;exitY=0.5;exitDx=0;exitDy=0;entryX=0.817;entryY=0.011;entryDx=0;entryDy=0;entryPerimeter=0;" edge="1" parent="WIyWlLk6GJQsqaUBKTNV-1" source="mwSsWJYTHsI-j-IHyEZh-3" target="_pQ_e1QaEOG_pFHMruiR-40">
          <mxGeometry width="50" height="50" relative="1" as="geometry">
            <mxPoint x="420" y="740" as="sourcePoint" />
            <mxPoint x="470" y="690" as="targetPoint" />
            <Array as="points">
              <mxPoint x="220" y="510" />
            </Array>
          </mxGeometry>
        </mxCell>
        <mxCell id="mwSsWJYTHsI-j-IHyEZh-19" value="No" style="edgeLabel;html=1;align=center;verticalAlign=middle;resizable=0;points=[];" vertex="1" connectable="0" parent="mwSsWJYTHsI-j-IHyEZh-13">
          <mxGeometry x="-0.5474" y="-1" relative="1" as="geometry">
            <mxPoint as="offset" />
          </mxGeometry>
        </mxCell>
        <mxCell id="mwSsWJYTHsI-j-IHyEZh-15" value="" style="endArrow=classic;html=1;rounded=0;exitX=0;exitY=0.5;exitDx=0;exitDy=0;entryX=0.25;entryY=0;entryDx=0;entryDy=0;" edge="1" parent="WIyWlLk6GJQsqaUBKTNV-1" source="WIyWlLk6GJQsqaUBKTNV-6" target="_pQ_e1QaEOG_pFHMruiR-40">
          <mxGeometry width="50" height="50" relative="1" as="geometry">
            <mxPoint x="420" y="640" as="sourcePoint" />
            <mxPoint x="470" y="590" as="targetPoint" />
            <Array as="points">
              <mxPoint x="130" y="380" />
            </Array>
          </mxGeometry>
        </mxCell>
        <mxCell id="mwSsWJYTHsI-j-IHyEZh-18" value="No" style="edgeLabel;html=1;align=center;verticalAlign=middle;resizable=0;points=[];" vertex="1" connectable="0" parent="mwSsWJYTHsI-j-IHyEZh-15">
          <mxGeometry x="-0.8388" y="-1" relative="1" as="geometry">
            <mxPoint as="offset" />
          </mxGeometry>
        </mxCell>
        <mxCell id="mwSsWJYTHsI-j-IHyEZh-22" value="Yes" style="text;html=1;align=center;verticalAlign=middle;resizable=0;points=[];autosize=1;strokeColor=none;fillColor=none;" vertex="1" parent="WIyWlLk6GJQsqaUBKTNV-1">
          <mxGeometry x="385" y="680" width="30" height="20" as="geometry" />
        </mxCell>
      </root>
    </mxGraphModel>
  </diagram>
  <diagram id="TbTuktDpPzWPJ1on0Ahq" name="Page-2">
    <mxGraphModel dx="782" dy="513" grid="1" gridSize="10" guides="1" tooltips="1" connect="1" arrows="1" fold="1" page="1" pageScale="1" pageWidth="827" pageHeight="1169" math="0" shadow="0">
      <root>
        <mxCell id="xnfBkbnaAbSrt4galfbC-0" />
        <mxCell id="xnfBkbnaAbSrt4galfbC-1" parent="xnfBkbnaAbSrt4galfbC-0" />
        <mxCell id="ZQ5sLWQPbgrIGB6cAGuS-0" value="" style="rounded=0;html=1;jettySize=auto;orthogonalLoop=1;fontSize=11;endArrow=block;endFill=0;endSize=8;strokeWidth=1;shadow=0;labelBackgroundColor=none;edgeStyle=orthogonalEdgeStyle;exitX=0.5;exitY=1;exitDx=0;exitDy=0;" edge="1" parent="xnfBkbnaAbSrt4galfbC-1" target="ZQ5sLWQPbgrIGB6cAGuS-2" source="ZQ5sLWQPbgrIGB6cAGuS-4">
          <mxGeometry relative="1" as="geometry">
            <mxPoint x="430" y="960" as="sourcePoint" />
          </mxGeometry>
        </mxCell>
        <mxCell id="ZQ5sLWQPbgrIGB6cAGuS-1" value="Yes" style="rounded=0;html=1;jettySize=auto;orthogonalLoop=1;fontSize=11;endArrow=block;endFill=0;endSize=8;strokeWidth=1;shadow=0;labelBackgroundColor=none;edgeStyle=orthogonalEdgeStyle;entryX=0.5;entryY=0;entryDx=0;entryDy=0;" edge="1" parent="xnfBkbnaAbSrt4galfbC-1" source="ZQ5sLWQPbgrIGB6cAGuS-2" target="ZQ5sLWQPbgrIGB6cAGuS-16">
          <mxGeometry y="20" relative="1" as="geometry">
            <mxPoint as="offset" />
            <mxPoint x="430" y="1180" as="targetPoint" />
            <Array as="points" />
          </mxGeometry>
        </mxCell>
        <mxCell id="ZQ5sLWQPbgrIGB6cAGuS-2" value="用户把该设备添加到了微信？" style="rhombus;whiteSpace=wrap;html=1;shadow=0;fontFamily=Helvetica;fontSize=12;align=center;strokeWidth=1;spacing=6;spacingTop=-4;" vertex="1" parent="xnfBkbnaAbSrt4galfbC-1">
          <mxGeometry x="360" y="1060" width="140" height="80" as="geometry" />
        </mxCell>
        <mxCell id="ZQ5sLWQPbgrIGB6cAGuS-4" value="用户申请注销后主动撤回或者被驳回" style="rounded=1;whiteSpace=wrap;html=1;fontSize=12;glass=0;strokeWidth=1;shadow=0;" vertex="1" parent="xnfBkbnaAbSrt4galfbC-1">
          <mxGeometry x="360" y="920" width="140" height="60" as="geometry" />
        </mxCell>
        <mxCell id="ZQ5sLWQPbgrIGB6cAGuS-6" value="" style="edgeStyle=orthogonalEdgeStyle;rounded=0;orthogonalLoop=1;jettySize=auto;html=1;exitX=0.5;exitY=1;exitDx=0;exitDy=0;entryX=0.5;entryY=0;entryDx=0;entryDy=0;" edge="1" parent="xnfBkbnaAbSrt4galfbC-1" source="ZQ5sLWQPbgrIGB6cAGuS-15" target="ZQ5sLWQPbgrIGB6cAGuS-12">
          <mxGeometry relative="1" as="geometry">
            <mxPoint x="435.0000000000002" y="1490" as="sourcePoint" />
            <mxPoint x="430" y="1568" as="targetPoint" />
            <Array as="points" />
          </mxGeometry>
        </mxCell>
        <mxCell id="ZQ5sLWQPbgrIGB6cAGuS-9" value="注册到微信的设备是否&lt;span&gt;为可用状态？&lt;/span&gt;" style="rhombus;whiteSpace=wrap;html=1;" vertex="1" parent="xnfBkbnaAbSrt4galfbC-1">
          <mxGeometry x="310" y="1330" width="240" height="60" as="geometry" />
        </mxCell>
        <mxCell id="ZQ5sLWQPbgrIGB6cAGuS-10" value="" style="endArrow=classic;html=1;rounded=0;entryX=1;entryY=0.5;entryDx=0;entryDy=0;exitX=0;exitY=0.5;exitDx=0;exitDy=0;" edge="1" parent="xnfBkbnaAbSrt4galfbC-1">
          <mxGeometry width="50" height="50" relative="1" as="geometry">
            <mxPoint x="355" y="1610" as="sourcePoint" />
            <mxPoint x="290" y="1610" as="targetPoint" />
          </mxGeometry>
        </mxCell>
        <mxCell id="ZQ5sLWQPbgrIGB6cAGuS-11" value="end" style="rounded=1;whiteSpace=wrap;html=1;" vertex="1" parent="xnfBkbnaAbSrt4galfbC-1">
          <mxGeometry x="130" y="1580" width="160" height="60" as="geometry" />
        </mxCell>
        <mxCell id="ZQ5sLWQPbgrIGB6cAGuS-12" value="&lt;span&gt;用户设备关联关系设置为不可用状态&lt;/span&gt;" style="rounded=1;whiteSpace=wrap;html=1;" vertex="1" parent="xnfBkbnaAbSrt4galfbC-1">
          <mxGeometry x="345" y="1580" width="170" height="60" as="geometry" />
        </mxCell>
        <mxCell id="ZQ5sLWQPbgrIGB6cAGuS-15" value="&lt;span&gt;把用户设备关联关系同步到微信侧&lt;/span&gt;" style="rounded=1;whiteSpace=wrap;html=1;" vertex="1" parent="xnfBkbnaAbSrt4galfbC-1">
          <mxGeometry x="330" y="1450" width="200" height="60" as="geometry" />
        </mxCell>
        <mxCell id="ZQ5sLWQPbgrIGB6cAGuS-16" value="用户可以操作设备卡片？" style="rhombus;whiteSpace=wrap;html=1;" vertex="1" parent="xnfBkbnaAbSrt4galfbC-1">
          <mxGeometry x="310" y="1200" width="240" height="60" as="geometry" />
        </mxCell>
        <mxCell id="ZQ5sLWQPbgrIGB6cAGuS-17" value="Yes" style="rounded=0;html=1;jettySize=auto;orthogonalLoop=1;fontSize=11;endArrow=block;endFill=0;endSize=8;strokeWidth=1;shadow=0;labelBackgroundColor=none;edgeStyle=orthogonalEdgeStyle;exitX=0.5;exitY=1;exitDx=0;exitDy=0;entryX=0.5;entryY=0;entryDx=0;entryDy=0;" edge="1" parent="xnfBkbnaAbSrt4galfbC-1" source="ZQ5sLWQPbgrIGB6cAGuS-16" target="ZQ5sLWQPbgrIGB6cAGuS-9">
          <mxGeometry y="20" relative="1" as="geometry">
            <mxPoint as="offset" />
            <mxPoint x="440" y="1280" as="targetPoint" />
            <mxPoint x="440" y="1150" as="sourcePoint" />
            <Array as="points">
              <mxPoint x="430" y="1280" />
              <mxPoint x="430" y="1280" />
            </Array>
          </mxGeometry>
        </mxCell>
        <mxCell id="ZQ5sLWQPbgrIGB6cAGuS-18" value="" style="endArrow=classic;html=1;rounded=0;exitX=0.5;exitY=1;exitDx=0;exitDy=0;entryX=0.5;entryY=0;entryDx=0;entryDy=0;" edge="1" parent="xnfBkbnaAbSrt4galfbC-1" source="ZQ5sLWQPbgrIGB6cAGuS-9" target="ZQ5sLWQPbgrIGB6cAGuS-15">
          <mxGeometry width="50" height="50" relative="1" as="geometry">
            <mxPoint x="460" y="1410" as="sourcePoint" />
            <mxPoint x="510" y="1360" as="targetPoint" />
          </mxGeometry>
        </mxCell>
        <mxCell id="ZQ5sLWQPbgrIGB6cAGuS-22" value="" style="endArrow=classic;html=1;rounded=0;exitX=0;exitY=0.5;exitDx=0;exitDy=0;entryX=0.817;entryY=0.011;entryDx=0;entryDy=0;entryPerimeter=0;" edge="1" parent="xnfBkbnaAbSrt4galfbC-1" source="ZQ5sLWQPbgrIGB6cAGuS-16" target="ZQ5sLWQPbgrIGB6cAGuS-11">
          <mxGeometry width="50" height="50" relative="1" as="geometry">
            <mxPoint x="460" y="1460" as="sourcePoint" />
            <mxPoint x="510" y="1410" as="targetPoint" />
            <Array as="points">
              <mxPoint x="260" y="1230" />
            </Array>
          </mxGeometry>
        </mxCell>
        <mxCell id="ZQ5sLWQPbgrIGB6cAGuS-23" value="No" style="edgeLabel;html=1;align=center;verticalAlign=middle;resizable=0;points=[];" vertex="1" connectable="0" parent="ZQ5sLWQPbgrIGB6cAGuS-22">
          <mxGeometry x="-0.5474" y="-1" relative="1" as="geometry">
            <mxPoint as="offset" />
          </mxGeometry>
        </mxCell>
        <mxCell id="ZQ5sLWQPbgrIGB6cAGuS-24" value="" style="endArrow=classic;html=1;rounded=0;exitX=0;exitY=0.5;exitDx=0;exitDy=0;entryX=0.25;entryY=0;entryDx=0;entryDy=0;" edge="1" parent="xnfBkbnaAbSrt4galfbC-1" source="ZQ5sLWQPbgrIGB6cAGuS-2" target="ZQ5sLWQPbgrIGB6cAGuS-11">
          <mxGeometry width="50" height="50" relative="1" as="geometry">
            <mxPoint x="460" y="1360" as="sourcePoint" />
            <mxPoint x="510" y="1310" as="targetPoint" />
            <Array as="points">
              <mxPoint x="170" y="1100" />
            </Array>
          </mxGeometry>
        </mxCell>
        <mxCell id="ZQ5sLWQPbgrIGB6cAGuS-25" value="No" style="edgeLabel;html=1;align=center;verticalAlign=middle;resizable=0;points=[];" vertex="1" connectable="0" parent="ZQ5sLWQPbgrIGB6cAGuS-24">
          <mxGeometry x="-0.8388" y="-1" relative="1" as="geometry">
            <mxPoint as="offset" />
          </mxGeometry>
        </mxCell>
        <mxCell id="ZQ5sLWQPbgrIGB6cAGuS-26" value="Yes" style="text;html=1;align=center;verticalAlign=middle;resizable=0;points=[];autosize=1;strokeColor=none;fillColor=none;" vertex="1" parent="xnfBkbnaAbSrt4galfbC-1">
          <mxGeometry x="425" y="1400" width="30" height="20" as="geometry" />
        </mxCell>
        <mxCell id="ZQ5sLWQPbgrIGB6cAGuS-27" value="" style="endArrow=classic;html=1;rounded=0;exitX=0;exitY=0.5;exitDx=0;exitDy=0;entryX=0.5;entryY=0;entryDx=0;entryDy=0;" edge="1" parent="xnfBkbnaAbSrt4galfbC-1" source="ZQ5sLWQPbgrIGB6cAGuS-9" target="ZQ5sLWQPbgrIGB6cAGuS-11">
          <mxGeometry width="50" height="50" relative="1" as="geometry">
            <mxPoint x="380" y="1430" as="sourcePoint" />
            <mxPoint x="430" y="1380" as="targetPoint" />
            <Array as="points">
              <mxPoint x="210" y="1360" />
            </Array>
          </mxGeometry>
        </mxCell>
        <mxCell id="ZQ5sLWQPbgrIGB6cAGuS-28" value="No" style="edgeLabel;html=1;align=center;verticalAlign=middle;resizable=0;points=[];" vertex="1" connectable="0" parent="ZQ5sLWQPbgrIGB6cAGuS-27">
          <mxGeometry x="0.2479" y="1" relative="1" as="geometry">
            <mxPoint as="offset" />
          </mxGeometry>
        </mxCell>
      </root>
    </mxGraphModel>
  </diagram>
</mxfile>
